<svg width="21" height="21" viewBox="0 0 21 21" fill="none" xmlns="http://www.w3.org/2000/svg">
<path d="M20.6421 16.6903C20.4657 17.1267 19.583 17.4876 18.0894 17.733C17.9504 17.7567 17.8894 17.9985 17.8094 18.3939C17.7767 18.5576 17.7413 18.7167 17.6958 18.8848C17.6825 18.9547 17.6448 19.0175 17.5895 19.0621C17.5356 19.1044 17.4677 19.1248 17.3995 19.1194H17.3767C17.234 19.1133 17.0922 19.0939 16.9531 19.0612C16.585 18.9797 16.2092 18.938 15.8322 18.9367C15.5601 18.9367 15.2904 18.9609 15.0232 19.0094C14.4544 19.1654 13.9294 19.451 13.4896 19.8439C12.7519 20.5222 11.8005 20.9216 10.7996 20.973C10.7433 20.973 10.6887 20.9712 10.6478 20.9684C10.6146 20.9718 10.5812 20.9733 10.5478 20.973C9.54651 20.9226 8.59448 20.5231 7.85698 19.8439C7.4171 19.451 6.89218 19.1654 6.32339 19.0094C6.05641 18.961 5.78564 18.9367 5.51432 18.9367C5.13782 18.9407 4.76289 18.9859 4.39617 19.0712C4.25617 19.1064 4.11436 19.1276 3.97072 19.1348C3.93486 19.1397 3.89839 19.1374 3.86343 19.128C3.82847 19.1187 3.79572 19.1024 3.76709 19.0803C3.70723 19.0337 3.66596 18.9673 3.65073 18.893C3.60742 18.7295 3.56982 18.5646 3.53801 18.3985C3.45619 18.0012 3.3971 17.7585 3.25802 17.7349C1.76351 17.4903 0.881717 17.1285 0.705358 16.6903C0.687277 16.6463 0.676234 16.5996 0.672631 16.5522C0.669872 16.49 0.688478 16.4287 0.725357 16.3785C0.761086 16.3298 0.814108 16.2966 0.873535 16.2858C2.10987 16.0476 3.22256 15.3431 4.00981 14.3004C4.44571 13.7623 4.80544 13.1667 5.07888 12.5304L5.08251 12.5186C5.16428 12.3746 5.21559 12.2153 5.23326 12.0506C5.25093 11.886 5.23459 11.7194 5.18524 11.5614C4.99433 11.0786 4.35617 10.8632 3.93436 10.7205C3.83876 10.6904 3.74444 10.6565 3.65164 10.6186C3.27711 10.4614 2.66258 10.1277 2.74439 9.67048C2.80517 9.50008 2.91689 9.35251 3.06439 9.24776C3.20767 9.14681 3.38013 9.09571 3.55528 9.10231C3.64008 9.10056 3.72413 9.11861 3.80073 9.15504C4.11256 9.32507 4.4587 9.42263 4.81343 9.44048C5.02568 9.45528 5.23535 9.3868 5.39796 9.24958L5.3616 8.61323C5.17041 7.17961 5.25246 5.72276 5.60341 4.31968C6.00445 3.3295 6.68518 2.47755 7.56245 1.86791C8.41502 1.27669 9.43039 0.965345 10.4678 0.977017L10.8705 0.973381C11.9092 0.960952 12.926 1.27234 13.7796 1.86427C14.6583 2.4739 15.3406 3.32612 15.7431 4.31695C16.0941 5.7216 16.1755 7.18006 15.9831 8.61505L15.9795 8.68414L15.9477 9.24958C16.0977 9.37685 16.2849 9.44321 16.4777 9.43867C16.8113 9.41139 17.1358 9.31594 17.434 9.15504C17.5314 9.10994 17.6376 9.08697 17.7449 9.08776C17.8691 9.08837 17.9879 9.11261 18.1013 9.16049L18.1067 9.16413C18.2371 9.19655 18.3539 9.26943 18.4403 9.3723C18.5304 9.47715 18.5888 9.60549 18.6085 9.7423C18.6122 9.96502 18.4576 10.2968 17.6949 10.6186C17.6018 10.6557 17.5075 10.6896 17.4122 10.7205C16.9886 10.8632 16.3522 11.0786 16.1613 11.5614C16.1118 11.719 16.0951 11.8851 16.1123 12.0494C16.1295 12.2138 16.1802 12.3728 16.2613 12.5168L16.2677 12.5295C16.6413 13.4483 17.2189 14.2702 17.9567 14.9331C18.6751 15.5784 19.5376 16.0423 20.4721 16.2858C20.5312 16.2969 20.5839 16.33 20.6194 16.3785C20.6562 16.4287 20.6749 16.49 20.6721 16.5522C20.669 16.6002 20.6582 16.6475 20.6403 16.6922L20.6421 16.6903Z" fill="black"/>
</svg>
