<svg width="22" height="27" viewBox="0 0 22 27" fill="none" xmlns="http://www.w3.org/2000/svg">
<path d="M2.3289 26C2.13164 26 1.93737 25.954 1.75197 25.8665C1.28921 25.6426 1 25.1828 1 24.6711V3.46796C1 2.1094 2.1094 1 3.46796 1H18.6554C20.0139 1 21.1233 2.1094 21.1233 3.46796V24.6696C21.1233 25.1857 20.8341 25.6455 20.3714 25.865C19.9086 26.089 19.3688 26.0281 18.9668 25.7048L11.066 19.3838L3.16508 25.7048C2.92185 25.8991 2.63413 25.997 2.33748 25.997L2.3289 26ZM3.46351 2.13904C2.73083 2.13904 2.13461 2.73526 2.13461 3.46794V24.6696C2.13461 24.7719 2.20284 24.8209 2.2414 24.8401C2.28293 24.8594 2.35857 24.8817 2.44311 24.8179L11.0586 17.9274L19.674 24.8179C19.7541 24.8832 19.8342 24.8594 19.8757 24.8401C19.9172 24.8209 19.9825 24.7719 19.9825 24.6696L19.9795 3.46794C19.9795 2.73526 19.3833 2.13904 18.6506 2.13904H3.46351Z" fill="black" stroke="black" stroke-width="1.5"/>
</svg>
