<svg width="23" height="22" viewBox="0 0 23 22" fill="none" xmlns="http://www.w3.org/2000/svg">
<path fill-rule="evenodd" clip-rule="evenodd" d="M10.7324 5.37206C10.7324 4.94843 11.0762 4.60461 11.4999 4.60461C11.9235 4.60461 12.2673 4.94843 12.2673 5.37206V16.6279C12.2673 17.0515 11.9235 17.3953 11.4999 17.3953C11.0762 17.3953 10.7324 17.0515 10.7324 16.6279V5.37206Z" fill="black"/>
<path fill-rule="evenodd" clip-rule="evenodd" d="M5.87193 11.7674C5.44831 11.7674 5.10449 11.4236 5.10449 11C5.10449 10.5764 5.44831 10.2325 5.87193 10.2325H17.1277C17.5514 10.2325 17.8952 10.5764 17.8952 11C17.8952 11.4236 17.5514 11.7674 17.1277 11.7674H5.87193Z" fill="black"/>
<path fill-rule="evenodd" clip-rule="evenodd" d="M22.5 4.86047V17.1395C22.5 18.4288 21.9884 19.6649 21.0767 20.5767C20.1649 21.4884 18.9288 22 17.6395 22H5.36047C4.07116 22 2.83507 21.4884 1.92335 20.5767C1.01163 19.6649 0.5 18.4288 0.5 17.1395V4.86047C0.5 3.57116 1.01163 2.33507 1.92335 1.42335C2.83507 0.511628 4.07116 0 5.36047 0H17.6395C18.9288 0 20.1649 0.511628 21.0767 1.42335C21.9884 2.33507 22.5 3.57116 22.5 4.86047ZM20.9651 4.86047C20.9651 3.97842 20.6152 3.13219 19.991 2.50902C19.3678 1.88484 18.5216 1.53488 17.6395 1.53488H5.36047C4.47842 1.53488 3.63219 1.88484 3.00902 2.50902C2.38484 3.13219 2.03488 3.97842 2.03488 4.86047V17.1395C2.03488 18.0216 2.38484 18.8678 3.00902 19.491C3.63219 20.1152 4.47842 20.4651 5.36047 20.4651H17.6395C18.5216 20.4651 19.3678 20.1152 19.991 19.491C20.6152 18.8678 20.9651 18.0216 20.9651 17.1395V4.86047Z" fill="black"/>
</svg>
