<svg width="23" height="22" viewBox="0 0 23 22" fill="none" xmlns="http://www.w3.org/2000/svg">
<path d="M16.7581 0.00354774H6.24208H6.23284H6.22129C3.06382 0.0150965 0.5 2.58466 0.5 5.74198V16.258C0.5 19.4247 3.07532 22 6.24198 22H16.758C19.9247 22 22.5 19.4247 22.5 16.258V5.74198C22.5 2.57535 19.9247 0 16.758 0L16.7581 0.00354774ZM20.9536 5.00642H16.7729L14.313 1.48176H16.7579C18.8574 1.48176 20.6015 3.00734 20.9536 5.00642ZM10.1188 5.00642L7.66247 1.48176H12.5175L14.9774 5.00642H10.1188ZM5.87016 1.50246L8.31498 5.00642H2.04764C2.37908 3.12862 3.93913 1.67127 5.87016 1.50246ZM16.7581 20.5241H6.24208C3.89195 20.5241 1.97831 18.6117 1.97831 16.2604V6.48346H21.0207V16.2604C21.0207 18.6105 19.1082 20.5241 16.7569 20.5241H16.7581Z" fill="black"/>
<path d="M15.2595 11.7227L9.99671 8.68324C9.60061 8.45227 9.1248 8.45227 8.72867 8.68324C8.33253 8.91421 8.09351 9.32535 8.09351 9.78268V15.8608C8.09351 16.3193 8.33025 16.7304 8.72867 16.9602C8.9273 17.0757 9.14558 17.1312 9.36383 17.1312C9.58209 17.1312 9.79807 17.0746 9.99899 16.9602L15.2617 13.9207C15.6578 13.6898 15.8946 13.2786 15.8946 12.8213C15.8946 12.3628 15.6578 11.9517 15.2617 11.7219L15.2595 11.7227ZM9.57187 15.4981V10.1443L14.2076 12.8201L9.57187 15.4959V15.4981Z" fill="black"/>
</svg>
