<svg width="14" height="15" viewBox="0 0 14 15" fill="none" xmlns="http://www.w3.org/2000/svg">
<path d="M12.25 1.875V9.6875C12.25 10.2677 12.0349 10.8241 11.652 11.2343C11.2691 11.6445 10.7498 11.875 10.2083 11.875C9.66681 11.875 9.1475 11.6445 8.76462 11.2343C8.38173 10.8241 8.16663 10.2677 8.16663 9.6875C8.16663 9.10734 8.38173 8.55094 8.76462 8.1407C9.1475 7.73047 9.66681 7.5 10.2083 7.5C10.5233 7.5 10.8208 7.575 11.0833 7.7125V4.04375L5.24996 5.375V10.9375C5.24996 11.5177 5.03486 12.0741 4.65197 12.4843C4.26908 12.8945 3.74978 13.125 3.20829 13.125C2.66681 13.125 2.1475 12.8945 1.76462 12.4843C1.38173 12.0741 1.16663 11.5177 1.16663 10.9375C1.16663 10.3573 1.38173 9.80094 1.76462 9.3907C2.1475 8.98047 2.66681 8.75 3.20829 8.75C3.52329 8.75 3.82079 8.825 4.08329 8.9625V3.75L12.25 1.875Z" fill="black"/>
</svg>
