<svg width="26" height="26" viewBox="0 0 26 26" fill="none" xmlns="http://www.w3.org/2000/svg">
<g clip-path="url(#clip0_11_118)">
<path fill-rule="evenodd" clip-rule="evenodd" d="M11.4375 2.58337C10.0256 2.58349 8.63425 2.92125 7.37945 3.56847C6.12465 4.21569 5.04282 5.1536 4.22422 6.30395C3.40562 7.4543 2.87399 8.78374 2.67367 10.1813C2.47336 11.5789 2.61018 13.0042 3.07271 14.3381C3.53524 15.6721 4.31007 16.8761 5.33256 17.8498C6.35505 18.8234 7.59555 19.5383 8.95055 19.935C10.3056 20.3317 11.7358 20.3986 13.1219 20.1302C14.508 19.8617 15.8099 19.2656 16.9188 18.3917L20.7229 22.1959C20.9194 22.3856 21.1825 22.4906 21.4556 22.4882C21.7288 22.4859 21.99 22.3763 22.1832 22.1832C22.3763 21.9901 22.4858 21.7288 22.4882 21.4557C22.4906 21.1825 22.3856 20.9194 22.1959 20.723L18.3917 16.9188C19.4208 15.6132 20.0616 14.0442 20.2407 12.3914C20.4198 10.7386 20.13 9.06881 19.4044 7.57305C18.6788 6.0773 17.5468 4.81604 16.1378 3.93361C14.7289 3.05119 13.1 2.58326 11.4375 2.58337ZM4.66669 11.4375C4.66669 9.6418 5.38004 7.91962 6.64982 6.64984C7.9196 5.38006 9.64178 4.66671 11.4375 4.66671C13.2333 4.66671 14.9554 5.38006 16.2252 6.64984C17.495 7.91962 18.2084 9.6418 18.2084 11.4375C18.2084 13.2333 17.495 14.9555 16.2252 16.2252C14.9554 17.495 13.2333 18.2084 11.4375 18.2084C9.64178 18.2084 7.9196 17.495 6.64982 16.2252C5.38004 14.9555 4.66669 13.2333 4.66669 11.4375Z" fill="black"/>
</g>
<defs>
<clipPath id="clip0_11_118">
<rect width="25" height="25" fill="white" transform="translate(0.5 0.5)"/>
</clipPath>
</defs>
</svg>
