<svg width="20" height="20" viewBox="0 0 20 20" fill="none" xmlns="http://www.w3.org/2000/svg">
<g clip-path="url(#clip0_8_26)">
<path fill-rule="evenodd" clip-rule="evenodd" d="M16.6666 2.91669C16.9981 2.91669 17.316 3.04838 17.5505 3.2828C17.7849 3.51722 17.9166 3.83517 17.9166 4.16669V15.8334C17.9166 16.1649 17.7849 16.4828 17.5505 16.7172C17.316 16.9517 16.9981 17.0834 16.6666 17.0834C16.3351 17.0834 16.0171 16.9517 15.7827 16.7172C15.5483 16.4828 15.4166 16.1649 15.4166 15.8334V4.16669C15.4166 3.83517 15.5483 3.51722 15.7827 3.2828C16.0171 3.04838 16.3351 2.91669 16.6666 2.91669ZM13.3333 5.41669C13.6648 5.41669 13.9827 5.54838 14.2171 5.7828C14.4516 6.01722 14.5833 6.33517 14.5833 6.66669V15.8334C14.5833 16.1649 14.4516 16.4828 14.2171 16.7172C13.9827 16.9517 13.6648 17.0834 13.3333 17.0834C13.0017 17.0834 12.6838 16.9517 12.4494 16.7172C12.2149 16.4828 12.0833 16.1649 12.0833 15.8334V6.66669C12.0833 6.33517 12.2149 6.01722 12.4494 5.7828C12.6838 5.54838 13.0017 5.41669 13.3333 5.41669ZM9.99992 7.91669C10.3314 7.91669 10.6494 8.04838 10.8838 8.2828C11.1182 8.51722 11.2499 8.83517 11.2499 9.16669V15.8334C11.2499 16.1649 11.1182 16.4828 10.8838 16.7172C10.6494 16.9517 10.3314 17.0834 9.99992 17.0834C9.6684 17.0834 9.35046 16.9517 9.11603 16.7172C8.88161 16.4828 8.74992 16.1649 8.74992 15.8334V9.16669C8.74992 8.83517 8.88161 8.51722 9.11603 8.2828C9.35046 8.04838 9.6684 7.91669 9.99992 7.91669ZM6.66658 10.4167C6.99811 10.4167 7.31605 10.5484 7.55047 10.7828C7.78489 11.0172 7.91658 11.3352 7.91658 11.6667V15.8334C7.91658 16.1649 7.78489 16.4828 7.55047 16.7172C7.31605 16.9517 6.99811 17.0834 6.66658 17.0834C6.33506 17.0834 6.01712 16.9517 5.7827 16.7172C5.54828 16.4828 5.41659 16.1649 5.41659 15.8334V11.6667C5.41659 11.3352 5.54828 11.0172 5.7827 10.7828C6.01712 10.5484 6.33506 10.4167 6.66658 10.4167ZM3.33325 12.9167C3.66477 12.9167 3.98272 13.0484 4.21714 13.2828C4.45156 13.5172 4.58325 13.8352 4.58325 14.1667V15.8334C4.58325 16.1649 4.45156 16.4828 4.21714 16.7172C3.98272 16.9517 3.66477 17.0834 3.33325 17.0834C3.00173 17.0834 2.68379 16.9517 2.44937 16.7172C2.21495 16.4828 2.08325 16.1649 2.08325 15.8334V14.1667C2.08325 13.8352 2.21495 13.5172 2.44937 13.2828C2.68379 13.0484 3.00173 12.9167 3.33325 12.9167Z" fill="black"/>
</g>
<defs>
<clipPath id="clip0_8_26">
<rect width="20" height="20" fill="white"/>
</clipPath>
</defs>
</svg>
