<svg width="28" height="24" viewBox="0 0 28 24" fill="none" xmlns="http://www.w3.org/2000/svg">
<g clip-path="url(#clip0_44_41)">
<path d="M19.8594 0.21875C17.5051 0.21875 15.4156 1.14805 14 2.74531C12.5844 1.14805 10.4949 0.21875 8.14062 0.21875C6.0901 0.221231 4.12428 1.0369 2.67434 2.48684C1.2244 3.93678 0.408731 5.9026 0.40625 7.95312C0.40625 16.4305 12.8059 23.2039 13.3332 23.4887C13.5381 23.599 13.7672 23.6568 14 23.6568C14.2328 23.6568 14.4619 23.599 14.6668 23.4887C15.1941 23.2039 27.5938 16.4305 27.5938 7.95312C27.5913 5.9026 26.7756 3.93678 25.3257 2.48684C23.8757 1.0369 21.9099 0.221231 19.8594 0.21875ZM19.216 16.9016C17.5839 18.2865 15.8392 19.533 14 20.6281C12.1608 19.533 10.4161 18.2865 8.78398 16.9016C6.24453 14.723 3.21875 11.4008 3.21875 7.95312C3.21875 6.64776 3.7373 5.39586 4.66033 4.47283C5.58336 3.5498 6.83526 3.03125 8.14062 3.03125C10.2266 3.03125 11.9727 4.13281 12.698 5.90703C12.8036 6.16567 12.9838 6.38701 13.2157 6.54281C13.4476 6.69861 13.7206 6.78181 14 6.78181C14.2794 6.78181 14.5524 6.69861 14.7843 6.54281C15.0162 6.38701 15.1964 6.16567 15.302 5.90703C16.0273 4.13281 17.7734 3.03125 19.8594 3.03125C21.1647 3.03125 22.4166 3.5498 23.3397 4.47283C24.2627 5.39586 24.7812 6.64776 24.7812 7.95312C24.7812 11.4008 21.7555 14.723 19.216 16.9016Z" fill="black"/>
</g>
<defs>
<clipPath id="clip0_44_41">
<rect width="28" height="24" fill="white"/>
</clipPath>
</defs>
</svg>
