<svg width="30" height="30" viewBox="0 0 30 30" fill="none" xmlns="http://www.w3.org/2000/svg">
<path d="M20.8594 4.18604C18.5051 4.18604 16.4156 5.10813 15 6.69301C13.5844 5.10813 11.4949 4.18604 9.14062 4.18604C7.0901 4.1885 5.12428 4.99784 3.67434 6.43654C2.2244 7.87524 1.40873 9.82582 1.40625 11.8604C1.40625 20.2721 13.8059 26.993 14.3332 27.2755C14.5381 27.3851 14.7672 27.4424 15 27.4424C15.2328 27.4424 15.4619 27.3851 15.6668 27.2755C16.1941 26.993 28.5938 20.2721 28.5938 11.8604C28.5913 9.82582 27.7756 7.87524 26.3257 6.43654C24.8757 4.99784 22.9099 4.1885 20.8594 4.18604ZM20.216 20.7395C18.5839 22.1137 16.8392 23.3506 15 24.4372C13.1608 23.3506 11.4161 22.1137 9.78398 20.7395C7.24453 18.5779 4.21875 15.2814 4.21875 11.8604C4.21875 10.5652 4.7373 9.32301 5.66033 8.40714C6.58336 7.49126 7.83526 6.97673 9.14062 6.97673C11.2266 6.97673 12.9727 8.06975 13.698 9.83022C13.8036 10.0869 13.9838 10.3065 14.2157 10.4611C14.4476 10.6157 14.7206 10.6982 15 10.6982C15.2794 10.6982 15.5524 10.6157 15.7843 10.4611C16.0162 10.3065 16.1964 10.0869 16.302 9.83022C17.0273 8.06975 18.7734 6.97673 20.8594 6.97673C22.1647 6.97673 23.4166 7.49126 24.3397 8.40714C25.2627 9.32301 25.7812 10.5652 25.7812 11.8604C25.7812 15.2814 22.7555 18.5779 20.216 20.7395Z" fill="black"/>
</svg>
