<svg width="33" height="33" viewBox="0 0 33 33" fill="none" xmlns="http://www.w3.org/2000/svg">
<path d="M10.677 26.4344C11.4882 26.0769 12.3957 26.0095 13.2455 26.2432C14.3042 26.532 15.3973 26.6777 16.5015 26.675C22.8058 26.675 27.5015 22.1567 27.5015 16.0875C27.5015 10.0182 22.8058 5.5 16.5015 5.5C10.1971 5.5 5.50146 10.0196 5.50146 16.0875C5.50146 19.2087 6.73346 21.9615 8.89221 23.892C9.28444 24.2394 9.60163 24.6632 9.82434 25.1375C10.0471 25.6118 10.1706 26.1266 10.1875 26.6502L10.677 26.4344ZM16.5015 2.75C24.2482 2.75 30.2515 8.42462 30.2515 16.0875C30.2515 23.7504 24.2468 29.425 16.5015 29.425C15.157 29.4267 13.8184 29.2491 12.5208 28.897C12.2772 28.83 12.0179 28.8489 11.7866 28.9506L9.05721 30.1551C8.89239 30.228 8.7122 30.2592 8.53248 30.2461C8.35276 30.233 8.17901 30.1759 8.02651 30.0799C7.87402 29.9839 7.74744 29.8519 7.65792 29.6955C7.56839 29.5391 7.51866 29.3631 7.51309 29.183L7.43884 26.7355C7.43347 26.5866 7.39792 26.4404 7.33434 26.3057C7.27076 26.1709 7.18048 26.0505 7.06896 25.9518C4.39459 23.5592 2.75146 20.097 2.75146 16.0875C2.75146 8.42462 8.75471 2.75 16.5015 2.75ZM8.24459 19.9884L12.283 13.5809C12.4349 13.3396 12.6352 13.1325 12.8712 12.9726C13.1073 12.8127 13.3739 12.7034 13.6543 12.6517C13.9346 12.6001 14.2227 12.6071 14.5002 12.6723C14.7778 12.7376 15.0387 12.8597 15.2667 13.0309L18.4787 15.4371C18.6219 15.5452 18.7964 15.6037 18.9758 15.6037C19.1552 15.6037 19.3297 15.5452 19.4728 15.4371L23.811 12.144C24.3898 11.704 25.1461 12.397 24.7583 13.0116L20.72 19.4191C20.568 19.6604 20.3677 19.8675 20.1317 20.0274C19.8957 20.1873 19.629 20.2966 19.3487 20.3483C19.0683 20.3999 18.7802 20.3929 18.5027 20.3277C18.2252 20.2624 17.9642 20.1403 17.7362 19.9691L14.5242 17.5629C14.381 17.4548 14.2065 17.3963 14.0272 17.3963C13.8478 17.3963 13.6733 17.4548 13.5301 17.5629L9.19197 20.8587C8.61309 21.2974 7.85684 20.6044 8.24459 19.9884Z" fill="black"/>
</svg>
