<svg width="16" height="10" viewBox="0 0 16 10" fill="none" xmlns="http://www.w3.org/2000/svg">
<g clip-path="url(#clip0_8_18)">
<path d="M12.1667 3.88371e-09C12.8043 -3.55181e-05 13.4179 0.243604 13.8819 0.68107C14.3458 1.11854 14.6251 1.71676 14.6625 2.35333L14.6667 2.5V2.57167L14.71 2.5875C14.9239 2.67216 15.1103 2.8142 15.2487 2.99799C15.387 3.18178 15.472 3.40019 15.4942 3.62917L15.5 3.75V6.25C15.5 6.50064 15.4247 6.7455 15.2839 6.9528C15.143 7.1601 14.943 7.32027 14.71 7.4125L14.6667 7.4275V7.5C14.6667 8.13768 14.4231 8.75126 13.9856 9.21522C13.5481 9.67917 12.9499 9.95842 12.3133 9.99583L12.1667 10H3C2.36232 10 1.74874 9.7564 1.28478 9.31893C0.820828 8.88146 0.541577 8.28324 0.504167 7.64667L0.5 7.5V2.5C0.499964 1.86232 0.743604 1.24874 1.18107 0.784783C1.61854 0.320828 2.21676 0.0415771 2.85333 0.00416677L3 3.88371e-09H12.1667Z" fill="black"/>
</g>
<defs>
<clipPath id="clip0_8_18">
<rect width="16" height="10" fill="white"/>
</clipPath>
</defs>
</svg>
