<svg width="29" height="29" viewBox="0 0 29 29" fill="none" xmlns="http://www.w3.org/2000/svg">
<path d="M14.4981 27C11.7247 26.9996 9.03007 26.0768 6.83859 24.3769C4.64712 22.677 3.08323 20.2965 2.39313 17.6102C1.70303 14.924 1.92592 12.0845 3.02671 9.53881C4.12749 6.99313 6.04366 4.88583 8.47353 3.54869C10.9034 2.21154 13.709 1.72048 16.4486 2.15283C19.1881 2.58517 21.7061 3.91636 23.6061 5.93682C25.5061 7.95728 26.6802 10.5523 26.9435 13.3132C27.2068 16.0742 26.5445 18.8443 25.0606 21.1875L26.9981 27L21.1856 25.0625C19.1862 26.3315 16.8663 27.0036 14.4981 27Z" stroke="black" stroke-width="2.5" stroke-linecap="round" stroke-linejoin="round"/>
</svg>
